<svg xmlns="http://www.w3.org/2000/svg" version="1.1" xmlns:xlink="http://www.w3.org/1999/xlink" xmlns:svgjs="http://svgjs.dev/svgjs" width="1500" height="935" viewBox="0 0 1500 935"><g transform="matrix(1,0,0,1,-0.9090909090909918,0.3785425101214628)"><svg viewBox="0 0 396 247" data-background-color="#ffffff" preserveAspectRatio="xMidYMid meet" height="935" width="1500" xmlns="http://www.w3.org/2000/svg" xmlns:xlink="http://www.w3.org/1999/xlink"><g id="tight-bounds" transform="matrix(1,0,0,1,0.2400000000000091,-0.09999999999999432)"><svg viewBox="0 0 395.52 247.2" height="247.2" width="395.52"><g><svg></svg></g><g><svg viewBox="0 0 395.52 247.2" height="247.2" width="395.52"><g transform="matrix(1,0,0,1,147.43065655976676,47.215199999999996)"><svg viewBox="0 0 100.65868688046648 152.7696" height="152.7696" width="100.65868688046648"><g><svg viewBox="0 0 100.65868688046648 152.7696" height="152.7696" width="100.65868688046648"><g><svg viewBox="0 0 100.65868688046648 152.7696" height="152.7696" width="100.65868688046648"><g><svg viewBox="0 0 100.65868688046648 152.7696" height="152.7696" width="100.65868688046648"><g id="textblocktransform"><svg viewBox="0 0 100.65868688046648 152.7696" height="152.7696" width="100.65868688046648" id="textblock"><g><svg viewBox="0 0 100.65868688046648 152.7696" height="152.7696" width="100.65868688046648"><g transform="matrix(1,0,0,1,0,0)"><svg width="100.65868688046648" viewBox="3.5 -34.3 22.6 34.3" height="152.7696" data-palette-color="#1ebbd7"><path d="M3.5 0L3.5-34.3 7.3-34.3 20.05-12.75Q20.75-11.5 22.15-8.15L22.15-8.15 22.3-8.2Q22.15-11.7 22.15-12.75L22.15-12.75 22.15-34.3 26.1-34.3 26.1 0 22.45 0 9.6-21.85Q8.8-23.25 7.4-26.45L7.4-26.45 7.25-26.4Q7.45-23.2 7.45-21.85L7.45-21.85 7.45 0 3.5 0Z" opacity="1" transform="matrix(1,0,0,1,0,0)" fill="#1ebbd7" class="wordmark-text-0" data-fill-palette-color="primary" id="text-0"></path></svg></g></svg></g></svg></g></svg></g></svg></g></svg></g></svg></g><path d="M329.732 41.215L329.732 0 82.532 0 82.532 247.2 329.732 247.2 329.732 205.985 315.955 205.985 315.955 233.423 96.309 233.423 96.309 13.777 315.955 13.777 315.955 41.215Z" fill="#1ebbd7" stroke="transparent" data-fill-palette-color="tertiary"></path></svg></g><defs></defs></svg><rect width="395.52" height="247.2" fill="none" stroke="none" visibility="hidden"></rect></g></svg></g></svg>